<?xml version="1.0" encoding="UTF-8"?>
<svg id="Layer_2" data-name="Layer 2" xmlns="http://www.w3.org/2000/svg" viewBox="0 0 781.18 475.21">
  <defs>
    <style>
      .cls-1 {
        fill: #f0eee9;
      }
    </style>
  </defs>
  <g id="Layer_1-2" data-name="Layer 1">
    <g>
      <path class="cls-1" d="M309.7,0H0v306.81C54.86,166.89,168.38,53.02,309.7,0ZM476.1,0C219.37,8.71,7.99,218.7,0,475.21h476.1V0ZM781.18,0h-147.92c63.61,32.96,117.11,84.9,147.92,149.94V0ZM778.87,272.21C773.04,128.55,652.79,7.64,508.46,2.31v269.9h270.41ZM577.79,304.5h-69.34v69.21h69.34v-69.21ZM778.87,304.5h-168.72v170.71c89.58-10.54,162.42-79.24,168.72-170.71ZM781.18,475.21v-73.82c-17.9,30.35-43.81,55.69-73.96,73.82h73.96ZM577.79,406h-69.34v69.21h69.34v-69.21Z"/>
      <path class="cls-1" d="M476.1,0v475.21H0C7.99,218.7,219.37,8.71,476.1,0Z"/>
      <path class="cls-1" d="M778.87,272.21h-270.41V2.31c144.33,5.34,264.58,126.24,270.41,269.9Z"/>
      <path class="cls-1" d="M309.7,0C168.38,53.02,54.86,166.89,0,306.81V0h309.7Z"/>
      <path class="cls-1" d="M778.87,304.5c-6.29,91.47-79.13,160.17-168.72,170.71v-170.71h168.72Z"/>
      <path class="cls-1" d="M781.18,0v149.94c-30.81-65.04-84.31-116.99-147.92-149.94h147.92Z"/>
      <rect class="cls-1" x="508.46" y="304.5" width="69.34" height="69.21"/>
      <rect class="cls-1" x="508.46" y="406" width="69.34" height="69.21"/>
      <path class="cls-1" d="M781.18,475.21h-73.96c30.15-18.13,56.06-43.47,73.96-73.82v73.82Z"/>
    </g>
  </g>
</svg>